<svg xmlns="http://www.w3.org/2000/svg" xml:space="preserve" viewBox="0 0 524 145"><path fill="#FEFEFE" d="M349 146H1V1h524v145H349m-228.027-34.693c-.656-2.545-1.101-5.167-2.001-7.622-7.579-20.672-7.99-41.263.607-61.746 2.479-5.906 1.346-11.631-3.324-15.273-4.53-3.533-10.722-3.428-15.221.258-4.43 3.63-5.35 9.542-2.7 15.437 1.556 3.461 3.127 7.012 3.944 10.689 1.748 7.864-1.622 13.215-9.526 13.631-12.08.636-24.242.69-36.32.058-8.671-.455-12.17-6.012-10.053-14.594.982-3.98 3.112-7.668 4.593-11.538 2.022-5.282.314-10.976-4.14-14.24-4.264-3.125-10.191-3.033-14.439.225a12.088 12.088 0 0 0-3.766 14.363c9.022 21.3 8.945 42.627.35 64.013-2.453 6.103-1.14 11.856 3.466 15.277 4.694 3.485 10.876 3.291 15.178-.477 4.651-4.074 5.45-9.658 2.356-15.876-1.255-2.522-2.706-5.021-3.469-7.702-2.373-8.333.79-14.682 7.965-15.94 13.235-2.32 26.515-2.212 39.762.002 4.602.769 8.23 3.546 7.996 8.176-.258 5.11-1.638 10.358-3.555 15.135-2.012 5.018-2.897 9.6.42 14.128 2.87 3.92 6.882 5.796 11.78 4.837 5.685-1.115 8.98-4.727 10.097-11.221M320.138 70.59c.45 3.23-1.776 2.868-3.795 2.866-14.659-.011-29.317-.006-43.976-.006h-5.384v6.268c0 7.963 6.178 14.14 14.15 14.14 16.99.002 33.981 0 50.972 0h5.888v-6.915H284.49v-6.97h52.718V59.969H310.74l.612-4.322h27.852v-6.354h-73.983v6.567c8.355 0 16.48.079 24.6-.04 2.998-.045 4.431.704 3.001 4.409H267.16v6.788h5.037c14.659 0 29.317-.018 43.976.024 1.77.005 4.372-.927 3.966 3.55M485.5 19.98h-44.64v6.813h52.702v6.33h-53.12c0 2.048.004 3.529 0 5.01-.03 11.09 3.28 14.425 14.323 14.426 3.166 0 6.357-.228 9.483.127 1.103.125 2.044 1.68 3.06 2.58l-.976 1.354H438.72v6.166h74.038v-6.343c-8.23 0-16.205.093-24.174-.084-1.465-.032-2.906-1.16-4.358-1.782 1.401-.673 2.788-1.89 4.206-1.927 7.441-.195 14.89-.091 22.302-.091v-6.693h-52.619v-6.05h52.608V19.98H485.5M372.544 67.548h51.383v-6.805h-52.538V26.229h52.62v-5.975h-70.196c0 12.572-.05 24.876.073 37.178.014 1.31.885 2.714 1.635 3.9 3.795 6 9.555 7.083 17.023 6.216m-48.15-47.55h-43.387c-13.067 0-14.45 1.45-14.005 14.687.266 7.92 2.684 10.294 10.677 10.309 14.794.028 29.592-.189 44.383.066 13.58.233 16.308-.402 15.294-17.569-.02-.33-.154-.653-.165-.982-.129-4.114-2.747-5.842-6.36-6.386-1.791-.27-3.65-.097-6.438-.125M203.456 60.53c2.826-.004 5.66.12 8.479-.038 7.228-.402 9.03-2.325 9.066-9.509.032-6.475.007-12.951.007-19.881 6.374.311 3.206-3.926 3.878-7.17H209.11l-.592-6.37h-17.227l-.314 6.596h-15.832c.311 3.263-1.67 7.087 3.847 7.054 0 6.89-.05 13.53.014 20.17.064 6.619 1.873 8.661 8.504 9.034 4.973.28 9.973.093 15.946.114m25.993-31.97v41.253h17.522V41.727h8.678v-6.738h-8.86V18.982h-17.34v9.579M27.276 137.389c13.39 5.278 26.679 2.386 34.906-7.596 8.492-10.304 9.443-24.4 2.339-35.277-1.657-2.537-3.526-5.67-7.047-3.336-3.321 2.202-.69 4.71.332 7.328 1.712 4.386 3.815 9.125 3.646 13.636-.368 9.807-7.411 17.53-16.31 19.728-8.841 2.185-17.957-1.215-23.326-8.7-5.36-7.47-5.374-16.921.09-25.21 1.55-2.35 3.277-4.742.112-6.813-2.959-1.937-4.814.138-6.49 2.515-10.393 14.736-5.523 33.942 11.748 43.725M94.803 10.168c-15.106 9.306-19.935 26.24-11.497 40.862 1.57 2.721 3.22 7.005 7.357 4.793 4.594-2.457 1.038-5.526-.543-8.274-4.568-7.943-4.588-15.996.61-23.51 5.12-7.4 12.433-11.023 21.559-9.41 9.405 1.663 15.406 7.332 17.826 16.637 1.759 6.765-.135 12.67-3.824 18.418-.902 1.406.063 4.01.17 6.063 1.99-.594 4.03-1.07 5.945-1.85.647-.263 1.014-1.273 1.457-1.975 6.877-10.894 5.687-25.643-2.84-35.286-8.86-10.022-22.583-12.628-36.22-6.468m-4.19 112.527c-5.19-8.355-5.028-16.649.447-24.775 1.615-2.399 3.083-4.847 0-6.835-2.986-1.927-4.852.313-6.488 2.64-8.39 11.932-6.563 28.839 4.209 38.619 11.264 10.227 28.35 10.413 39.609.433 11.149-9.883 13.214-26.824 4.776-38.958-1.612-2.319-3.47-4.619-6.472-2.75-3.124 1.943-1.59 4.47-.078 6.86 6.911 10.923 4.802 23.471-5.058 30.475-9.848 6.994-22.204 4.933-30.945-5.71M17.868 37.307c.2-2.144.078-4.38.654-6.419 2.666-9.428 8.988-15.17 18.642-16.419 8.834-1.143 16.025 2.43 20.89 9.93 5.128 7.903 4.9 16.003-.128 23.921-1.547 2.437-3.831 5.075-.456 7.272 3.457 2.25 5.338-.708 7.05-3.324 3.912-5.973 5.171-12.521 4.515-19.545C67.918 20.761 58.85 10.526 46.64 7.502 34.31 4.45 21.44 9.732 14.657 20.63c-6.445 10.355-5.95 24.35 1.568 33.19 1.126 1.322 4.26 2.293 5.725 1.674 2.65-1.12 1.767-3.524.56-5.907-1.845-3.643-3.088-7.591-4.642-12.28m174.805 56.556h54.846v-6.98H194.4V64.43h-17.262v14.637c0 8.609 6.1 14.792 15.536 14.796m278.835-6.876h-13.68v-18.66h-17.37c0 4.637-.026 8.942.006 13.247.04 5.504 6.91 12.27 12.489 12.276 18.129.017 36.257.013 54.386-.006 1.434-.001 2.869-.173 4.251-.263v-6.594h-40.082M424.2 93.848l2.842-6.635h-74.872v6.643c23.928 0 47.503 0 72.03-.008m-173.696 29.174c2.691 2.231 3.401 6.995 8.724 6.732 0-6.719.069-13.171-.072-19.619-.022-1.01-.999-1.998-1.534-2.996-.616 1.084-1.694 2.138-1.763 3.255-.226 3.657-.085 7.337-.085 11.008l-1.27.216-13.089-15.226c0 7.942-.102 14.396.105 20.84.033 1.015 1.465 1.984 2.25 2.974l1.27-.88v-13.009c2.271 2.806 3.631 4.486 5.464 6.705m180.186 6.028c7.21 1.785 13.08-1.296 14.832-7.781 1.625-6.02-2.006-12.33-8.043-13.982-5.224-1.428-11.061 1.378-13.212 6.35-2.43 5.619-.325 11.233 6.423 15.413m-58.344-20.147-13.686-2.78v22.912c9.544 1.642 14.592.077 17.36-5.245 2.468-4.744 1.428-9.689-3.674-14.887m94.661 10.537c3.818 3.343 5.22 9.486 11.879 10.6 0-6.964.09-13.276-.084-19.58-.03-1.118-1.156-2.205-1.775-3.306-.637 1.084-1.756 2.139-1.823 3.257-.23 3.818-.088 7.658-.088 12.708l-13.826-16.34v24.177c5.206-4.291 1.38-9.565 3.557-13.678.618.567 1.17 1.076 2.16 2.162m-285.938 3.145c1.232-5.56 5.147-1.308 8.014-2.797 0 2.987-.167 5.3.09 7.565.092.806 1.215 1.495 1.867 2.237.627-.768 1.78-1.525 1.797-2.306.145-6.606.083-13.216.083-20.139-1.296 0-3.007-.144-3.037.022-.551 2.983-.899 6.004-1.287 8.995h-7.498v-8.936l-1.221-.732c-.839.901-2.369 1.777-2.403 2.707a237.668 237.668 0 0 0-.002 17.91c.037.974 1.594 1.89 2.449 2.833l1.147-1.006v-6.353m221.855 4.057 4.279 3.89c-.41-4.22-1.934-7.855-.758-10.031 3.705-6.856 1.054-12.91-6.78-13.472-2.416-.173-4.855-.027-7.54-.027 0 7.1-.117 13.575.117 20.037.039 1.05 1.635 2.044 2.512 3.064l1.388-.865v-20.772c3.38 2.19 6.82 3.222 7.542 5.23.68 1.892-1.504 4.813-2.428 7.28l-1.334-.344c.892 1.775 1.784 3.55 3.002 6.01m-116.83-8.357c0 .5.003.998 0 1.498-.02 2.946-.149 6.13-4.086 6.09-3.93-.041-3.997-3.19-3.964-6.165.045-4.133.011-8.267.011-12.4l-1.459-.767c-.737 1.056-2.04 2.074-2.111 3.172-.258 3.976-.193 7.982-.08 11.971.131 4.668 3.01 7.728 7.229 7.93 4.298.205 7.91-2.951 8.205-7.629.262-4.142.22-8.324-.046-12.466-.066-1.026-1.519-1.964-2.334-2.943l-1.364.869v10.84m214.564-1.51h-6.617v12.405c12.818 1.522 16.817.86 17.199-3.202h-13.737v-5.94c3.904 0 7.545.114 11.171-.076.978-.052 1.907-1.026 2.86-1.576-.997-.537-1.957-1.433-2.997-1.539-2.297-.235-4.635-.073-7.879-.073m-291.319 8.868c-.35 1.181-.7 2.362-1.32 4.444 7.389-2.238 5.215-9.917 9.537-13.404 1.075 2.616 1.997 5.211 3.195 7.673 1.05 2.159.668 6.042 5.613 4.818-2.975-7.317-5.84-14.363-9.167-22.55-2.796 6.84-5.151 12.6-7.858 19.02m95.628-18.24v22.204c12.027.975 12.512.83 11.895-3.912h-8.244c0-5.49-.045-10.478.021-15.464.028-2.083-.188-3.732-3.672-2.829m194.753-.365h-5.784l-.606 1.242c.836.806 1.637 2.263 2.513 2.309 4.487.236 8.996.202 13.488.021.791-.031 1.536-1.206 2.302-1.853-.829-.572-1.625-1.571-2.492-1.636-2.817-.212-5.66-.082-9.421-.083z"/><path fill="#0571BD" d="M120.935 111.711c-1.079 6.09-4.374 9.702-10.06 10.817-4.897.96-8.909-.918-11.779-4.837-3.317-4.529-2.432-9.11-.42-14.128 1.917-4.777 3.297-10.025 3.555-15.135.233-4.63-3.394-7.407-7.996-8.176-13.247-2.214-26.527-2.322-39.762-.002-7.175 1.258-10.338 7.607-7.965 15.94.763 2.68 2.214 5.18 3.469 7.702 3.094 6.218 2.295 11.802-2.356 15.876-4.302 3.768-10.484 3.962-15.178.477-4.607-3.421-5.919-9.174-3.466-15.277 8.595-21.386 8.672-42.714-.35-64.013a12.088 12.088 0 0 1 3.766-14.363c4.248-3.258 10.175-3.35 14.439-.225 4.454 3.264 6.162 8.958 4.14 14.24-1.48 3.87-3.611 7.557-4.593 11.538-2.117 8.582 1.382 14.14 10.053 14.594 12.078.633 24.24.578 36.32-.058 7.904-.416 11.274-5.767 9.526-13.631-.817-3.677-2.388-7.228-3.944-10.69-2.65-5.894-1.73-11.807 2.7-15.436 4.499-3.686 10.69-3.79 15.221-.258 4.67 3.642 5.803 9.367 3.324 15.273-8.598 20.483-8.186 41.074-.607 61.746.9 2.455 1.345 5.077 1.963 8.026z"/><path fill="#0A3758" d="M320.138 70.104c.406-3.99-2.196-3.058-3.966-3.063-14.659-.042-29.317-.024-43.976-.024h-5.037v-6.788h25.664c1.43-3.705-.003-4.454-3-4.41-8.122.12-16.246.041-24.6.041v-6.567h73.982v6.354h-27.852l-.612 4.322h26.466v20.005h-52.718v6.97h53.504v6.916h-56.86c-7.972-.002-14.15-6.178-14.15-14.14V73.45h5.384c14.659 0 29.317-.005 43.976.006 2.019.002 4.244.363 3.795-3.353z"/><path fill="#0C3959" d="M486 19.979h24.723v19.837h-52.608v6.049h52.619v6.693c-7.412 0-14.86-.104-22.302.09-1.418.038-2.805 1.255-4.206 1.928 1.452.622 2.893 1.75 4.358 1.782 7.969.177 15.943.084 24.174.084v6.343H438.72v-6.166h27.612l.975-1.353c-1.015-.902-1.956-2.456-3.059-2.581-3.126-.355-6.317-.127-9.483-.127-11.042 0-14.353-3.336-14.323-14.427.004-1.48 0-2.96 0-5.008h53.12v-6.331h-52.701v-6.813H486z"/><path fill="#0A3758" d="M372.054 67.548c-6.978.867-12.738-.216-16.533-6.216-.75-1.186-1.621-2.59-1.635-3.9-.124-12.302-.073-24.606-.073-37.178h70.196v5.975h-52.62v34.514h52.538v6.805h-51.873z"/><path fill="#023152" d="M324.874 19.998c2.308.028 4.166-.145 5.957.125 3.613.544 6.231 2.272 6.36 6.386.01.329.146.653.165.982 1.014 17.167-1.715 17.802-15.294 17.569-14.79-.255-29.589-.038-44.383-.066-7.993-.015-10.411-2.39-10.677-10.31-.445-13.236.938-14.686 14.005-14.686h43.867m-14.522 15.88c1.332 0 2.665-.023 3.997.005 2.66.057 5.62-.256 5.214-3.563-.154-1.256-3.28-2.98-5.111-3.054a296.475 296.475 0 0 0-24.467.007c-1.76.073-3.44 2.061-5.158 3.168 1.694 1.145 3.333 3.171 5.09 3.28 6.47.396 12.98.157 20.435.158z"/><path fill="#053355" d="M202.963 60.53c-5.48-.02-10.48.166-15.453-.114-6.631-.373-8.44-2.415-8.504-9.034-.063-6.64-.014-13.28-.014-20.17-5.517.033-3.536-3.791-3.847-7.054h15.832l.314-6.596h17.227l.592 6.37h15.776c-.672 3.244 2.496 7.481-3.878 7.17 0 6.93.025 13.406-.007 19.881-.035 7.184-1.838 9.107-9.066 9.51-2.819.156-5.653.033-8.972.037m1.05-6.802c.596-.522 1.697-1.031 1.71-1.567.153-6.315.218-12.635.068-18.949-.016-.69-1.43-1.748-2.346-1.951-7.656-1.695-9.446-.217-9.447 7.54 0 1.997-.01 3.995.002 5.993.06 10.151-.999 9 10.013 8.934z"/><path fill="#0A3858" d="M229.449 28.072v-9.09h17.34v16.007h8.86v6.738h-8.678v28.086h-17.522V28.072z"/><path fill="#0A74BF" d="M26.932 137.225c-16.927-9.62-21.797-28.825-11.404-43.561 1.676-2.377 3.531-4.452 6.49-2.515 3.165 2.07 1.437 4.463-.112 6.813-5.464 8.289-5.45 17.74-.09 25.21 5.37 7.485 14.485 10.885 23.326 8.7 8.899-2.199 15.942-9.921 16.31-19.728.169-4.511-1.934-9.25-3.646-13.636-1.021-2.619-3.653-5.126-.332-7.328 3.52-2.335 5.39.8 7.047 3.336 7.104 10.877 6.153 24.973-2.34 35.277-8.226 9.982-21.515 12.874-35.25 7.432z"/><path fill="#0973BE" d="M95.15 10.029c13.29-6.02 27.012-3.415 35.874 6.607 8.526 9.643 9.716 24.392 2.839 35.286-.443.702-.81 1.712-1.457 1.975-1.916.78-3.954 1.256-5.945 1.85-.107-2.053-1.072-4.657-.17-6.063 3.69-5.747 5.583-11.653 3.824-18.418-2.42-9.305-8.421-14.974-17.826-16.637-9.126-1.613-16.438 2.01-21.559 9.41-5.198 7.514-5.178 15.567-.61 23.51 1.58 2.748 5.137 5.817.543 8.274-4.138 2.212-5.787-2.072-7.357-4.793-8.438-14.622-3.609-31.556 11.845-41.001z"/><path fill="#0A73BF" d="M90.82 123.002c8.534 10.335 20.89 12.396 30.738 5.402 9.86-7.004 11.969-19.552 5.058-30.475-1.511-2.39-3.046-4.917.078-6.86 3.002-1.869 4.86.431 6.472 2.75 8.438 12.134 6.373 29.075-4.776 38.958-11.259 9.98-28.345 9.794-39.61-.433-10.77-9.78-12.597-26.687-4.208-38.618 1.636-2.328 3.502-4.568 6.489-2.641 3.082 1.988 1.614 4.436-.001 6.835-5.475 8.126-5.637 16.42-.24 25.082z"/><path fill="#0973BE" d="M17.896 37.741c1.526 4.254 2.77 8.202 4.614 11.845 1.207 2.383 2.09 4.787-.56 5.907-1.464.62-4.6-.352-5.725-1.675-7.517-8.839-8.013-22.834-1.568-33.189C21.44 9.732 34.311 4.45 46.64 7.502c12.21 3.024 21.278 13.259 22.395 25.22.656 7.024-.603 13.572-4.514 19.545-1.713 2.616-3.594 5.575-7.051 3.324-3.375-2.197-1.09-4.835.456-7.272 5.028-7.918 5.256-16.018.129-23.922-4.866-7.5-12.057-11.072-20.891-9.929-9.654 1.249-15.976 6.991-18.642 16.42-.576 2.038-.454 4.274-.626 6.853z"/><path fill="#0B3859" d="M192.202 93.862c-8.965-.004-15.064-6.187-15.064-14.796V64.429h17.26v22.454h53.121v6.98h-55.317z"/><path fill="#083657" d="M472.007 86.986h39.583v6.594c-1.382.09-2.817.262-4.251.263-18.129.019-36.257.023-54.386.006-5.579-.005-12.448-6.772-12.489-12.276-.032-4.305-.006-8.61-.006-13.248h17.37v18.661h14.179z"/><path fill="#093657" d="M423.723 93.852c-24.051.004-47.626.004-71.554.004v-6.643h74.872c-1.1 2.567-1.97 4.601-3.318 6.64z"/><path fill="#15405F" d="M250.267 122.752c-1.597-1.95-2.957-3.629-5.229-6.435v13.008l-1.269.881c-.785-.99-2.217-1.96-2.25-2.974-.207-6.444-.105-12.898-.105-20.84l13.09 15.226 1.27-.216c0-3.67-.142-7.35.084-11.008.069-1.117 1.147-2.171 1.763-3.255.535.998 1.512 1.987 1.534 2.996.14 6.448.072 12.9.072 19.62-5.323.262-6.033-4.502-8.96-7.003z"/><path fill="#154060" d="M430.323 128.933c-6.382-4.063-8.487-9.677-6.057-15.296 2.15-4.972 7.988-7.778 13.212-6.35 6.037 1.651 9.668 7.962 8.043 13.982-1.751 6.485-7.623 9.566-15.198 7.664m10.935-7.444c1.243-5.227-.511-9.219-4.623-10.518-3.621-1.144-7.212.72-8.796 4.618-1.663 4.093-.115 7.295 3.306 9.422 4.058 2.524 7.262.747 10.113-3.522z"/><path fill="#1D4665" d="M372.662 109.12c4.785 4.981 5.825 9.926 3.357 14.67-2.768 5.322-7.816 6.887-17.36 5.245v-22.912c4.846.984 9.266 1.882 14.003 2.996m-4.412 1.773-5.942-.85v16.093c4.778.768 8.681-.208 10.445-4.803 1.623-4.23.204-7.764-4.503-10.44z"/><path fill="#143F5F" d="M466.788 119.151c-.772-.797-1.324-1.306-1.942-1.873-2.176 4.113 1.65 9.387-3.557 13.678V106.78l13.826 16.34c0-5.05-.141-8.89.088-12.708.067-1.118 1.186-2.173 1.823-3.257.62 1.1 1.745 2.188 1.775 3.305.173 6.305.084 12.617.084 19.58-6.659-1.113-8.061-7.256-12.097-10.888z"/><path fill="#234C69" d="M181.067 123.046v5.892l-1.147 1.006c-.855-.943-2.412-1.86-2.449-2.834-.228-5.964-.22-11.944.002-17.909.034-.93 1.564-1.806 2.403-2.707l1.221.732v8.936h7.498c.388-2.99.736-6.012 1.287-8.995.03-.166 1.74-.022 3.037-.022 0 6.923.062 13.533-.083 20.139-.017.781-1.17 1.538-1.797 2.306-.652-.742-1.775-1.431-1.867-2.237-.257-2.265-.09-4.578-.09-7.565-2.867 1.49-6.782-2.763-8.015 3.258z"/><path fill="#113D5D" d="M402.76 126.3a1760.705 1760.705 0 0 0-2.84-5.668l1.334.345c.924-2.468 3.108-5.39 2.428-7.28-.722-2.01-4.161-3.041-7.542-5.23v20.771l-1.388.865c-.877-1.02-2.473-2.014-2.512-3.064-.234-6.462-.117-12.937-.117-20.037 2.685 0 5.124-.146 7.54.027 7.834.562 10.485 6.616 6.78 13.472-1.176 2.176.348 5.81.758 10.03-1.599-1.453-2.939-2.671-4.442-4.232z"/><path fill="#1C4664" d="M286.093 117.818v-10.373l1.364-.87c.815.98 2.268 1.918 2.334 2.944.266 4.142.308 8.324.046 12.466-.295 4.678-3.907 7.834-8.205 7.629-4.22-.202-7.098-3.262-7.23-7.93-.112-3.99-.177-7.995.081-11.97.071-1.099 1.374-2.117 2.111-3.173l1.459.766c0 4.134.034 8.268-.011 12.401-.033 2.975.035 6.124 3.964 6.164 3.937.041 4.066-3.143 4.086-6.09.003-.499 0-.998 0-1.964z"/><path fill="#14405F" d="M501.118 116.774c2.783 0 5.12-.162 7.418.073 1.04.106 2 1.002 2.996 1.539-.952.55-1.881 1.524-2.859 1.576-3.626.19-7.267.075-11.17.075v5.94h13.736c-.382 4.064-4.381 4.725-17.199 3.203v-12.406h7.078z"/><path fill="#184261" d="M209.514 125.313c2.53-6.09 4.886-11.85 7.682-18.69l9.167 22.55c-4.945 1.224-4.562-2.659-5.613-4.818-1.198-2.462-2.12-5.057-3.195-7.673-4.322 3.487-2.148 11.166-9.536 13.404.618-2.082.969-3.263 1.495-4.773z"/><path fill="#1B4564" d="M305.345 107.2c3.105-.701 3.321.948 3.293 3.03-.066 4.987-.021 9.974-.021 15.465h8.244c.617 4.742.132 4.887-11.895 3.912 0-7.372 0-14.788.379-22.407z"/><path fill="#325873" d="M500.183 107.037c3.297.001 6.14-.129 8.957.083.867.065 1.663 1.064 2.492 1.636-.766.647-1.51 1.822-2.302 1.853-4.492.18-9.001.215-13.488-.021-.876-.046-1.677-1.503-2.513-2.31l.606-1.241h6.248z"/><path fill="#EBEFF2" d="M309.872 35.879c-6.975 0-13.485.238-19.955-.159-1.757-.108-3.396-2.134-5.09-3.28 1.717-1.106 3.397-3.094 5.158-3.167 8.145-.342 16.32-.34 24.467-.007 1.83.074 4.957 1.798 5.111 3.054.406 3.307-2.555 3.62-5.214 3.563-1.332-.028-2.665-.004-4.477-.004z"/><path fill="#F9FAFB" d="M203.565 53.776c-10.564.019-9.504 1.17-9.565-8.982-.012-1.998-.002-3.996-.002-5.993 0-7.757 1.79-9.235 9.447-7.54.917.203 2.33 1.261 2.346 1.951.15 6.314.085 12.634-.068 18.949-.013.536-1.114 1.045-2.158 1.615zM441.081 121.838c-2.674 3.92-5.878 5.697-9.936 3.173-3.42-2.127-4.969-5.329-3.306-9.422 1.584-3.898 5.175-5.762 8.796-4.618 4.112 1.3 5.866 5.291 4.446 10.867z"/><path fill="#FAFBFC" d="M368.622 111.04c4.335 2.528 5.754 6.062 4.13 10.292-1.763 4.595-5.666 5.57-10.444 4.803v-16.093c2.135.305 4.039.577 6.314.999z"/></svg>